# xmcd
#
# Track frame offsets:
#	150
#	15527
#	30002
#	44410
#	59369
#	75030
#	89123
#	102180
#	117039
#	128952
#	142353
#	154284
#	172848
#	186754
#	204951
#	230736
#	245326
#	259403
#
# Disc length: 3610 seconds
#
# Revision: 0
# Processed by: cddbd v1.5.2PL0 Copyright (c) Steve Scherf et al.
# Submitted via: EasyCDDAExtractor 16.0.6.1
#
DISCID=ec0e1812
DTITLE=Συλλογικός δίσκος - Ελληνικά νησιά
DYEAR=1998
DGENRE=Παραδοσιακή
TTITLE0=Χατζηδάκη Άννα-Χατζηδάκη Αιμιλία - Το θαλασσάκι
TTITLE1=Περπινιάδης Στελλάκης-Γεωργακοπούλου Ιωάννα - Ξεκινά μιά ψαροπούλα
TTITLE2=Χατζηδάκη Άννα-Χατζηδάκη Αιμιλία - Η μπρατσέρα
TTITLE3=Αμπατζή Ρίτα - Δεν ημπορώ να κλαίω πια
TTITLE4=Χατζηδάκη Άννα-Χατζηδάκη Αιμιλία - Μέσ' στου Αιγαίου τα νησιά
TTITLE5=Κονιτοπούλου Αγγελική-Λεγάκη Ελένη - Έχει το χρώμα της αυγής
TTITLE6=Κουκουλάρης Στάθης - Σούστα
TTITLE7=Καραμπεσίνη Άννα-Σαρρή Έφη - Ο Κουκουμάς
TTITLE8=Παιδ. χορ. Γιάννη Τσιαμούλη - Της Ωριάς
TTITLE9=Κονιτοπούλου-Λεγάκη Ειρήνη - Το πλατανιώτικο νερό
TTITLE10=Κονιτοπούλου-Λεγάκη Ειρήνη - Βρε Κεχαγιά περήφανε
TTITLE11=Κονιτοπούλου-Λεγάκη Ειρήνη - Ο Μανώλαρος
TTITLE12=Κονιτοπούλου-Λεγάκη Αγγελική - Τσιριγώτικος
TTITLE13=Σφακιανάκης Γιώργος - Ηρακλειώτικος πηδηχτός
TTITLE14=Ξυλούρης Νίκος - Ερωτόκριτος
TTITLE15=Κάλβειο Παραδ. Συγκρότημα - Το αλφαβητάρι της αγάπης
TTITLE16=Κεγαλληνός Οδ.-Ντάσης Ν.-Κεφαληνός Σπ. - Σ' ένα παπόρο μέσα
TTITLE17=Ζούγρας Τ.-Μαρμαράς Τ.-Βλατσέας Γ. - Απόψε την κιθάρα μου
EXTD=
EXTT0=
EXTT1=
EXTT2=
EXTT3=
EXTT4=
EXTT5=
EXTT6=
EXTT7=
EXTT8=
EXTT9=
EXTT10=
EXTT11=
EXTT12=
EXTT13=
EXTT14=
EXTT15=
EXTT16=
EXTT17=
PLAYORDER=
